<svg width="163" height="48" viewBox="0 0 163 48" fill="none" xmlns="http://www.w3.org/2000/svg">
<g clip-path="url(#clip0_711_1864)">
<path d="M82.1982 16.5801H87.9676L85.5562 35.9031C85.2678 38.28 84.8884 42.1615 82.4334 44.636C80.9157 46.18 78.1306 47.5833 73.638 47.5833C71.1716 47.5833 68.1513 47.163 65.9752 44.8705C64.6472 43.5142 63.6986 41.4093 63.469 39.2124H69.5211C69.6159 40.0529 70.0409 41.0885 70.703 41.6907C71.2229 42.2047 72.2208 42.7187 73.8239 42.7187C75.6225 42.7187 76.9467 42.1559 77.7967 41.3624C79.0754 40.1467 79.4529 38.3232 79.6426 36.9668L80.0221 34.1153C79.3382 35.0688 78.4703 35.8792 77.4684 36.4997C76.3085 37.1719 74.9822 37.5117 73.638 37.4809C71.1318 37.4809 68.8134 36.873 66.9219 35.0026C65.4041 33.5018 64.226 31.1211 64.226 27.7537C64.226 23.9191 65.7437 20.7392 67.9141 18.7281C69.3332 17.3717 71.7085 15.9141 75.1975 15.9141C77.0435 15.9141 78.4607 16.2893 79.5022 16.8971C80.47 17.4552 81.2823 18.2423 81.8662 19.1877L82.1982 16.5801ZM72.1771 22.4257C70.8055 23.6433 70.1908 25.5606 70.1908 27.2903C70.178 27.9825 70.3057 28.6702 70.5664 29.3127C70.8271 29.9552 71.2155 30.5396 71.7085 31.0311C72.1794 31.4922 72.7395 31.8548 73.3552 32.0972C73.971 32.3396 74.6298 32.4568 75.2924 32.4419C77.6107 32.4419 78.9824 31.5995 79.692 30.941C80.9214 29.7723 81.6783 27.855 81.6783 26.0315C81.6959 25.3348 81.5661 24.6422 81.2972 23.998C81.0283 23.3538 80.6263 22.7723 80.1169 22.2907C79.2651 21.5403 77.9408 20.9775 76.2865 20.9775C74.2527 20.9775 72.936 21.726 72.1771 22.4257Z" fill="white"/>
<path d="M94.841 16.5805L93.6154 26.6829C93.4257 28.3188 93.3783 28.8347 93.3783 29.1217C93.3783 30.435 93.8033 31.1854 94.2301 31.6C94.8448 32.2547 95.9376 32.6299 97.1139 32.6299C98.5804 32.6299 99.622 32.1159 100.284 31.5043C101.371 30.4744 101.612 29.0655 101.844 27.2476L103.172 16.5843H108.943L107.564 27.7522C107.089 31.5043 106.192 34.3934 103.117 36.125C101.273 37.153 98.9561 37.4794 97.0171 37.4794C94.4616 37.4794 91.908 36.9166 90.2536 35.7498C89.1646 34.9543 87.5103 33.2715 87.5103 30.1854C87.538 29.1176 87.633 28.0524 87.7948 26.9962L89.0716 16.5674L94.841 16.5805Z" fill="white"/>
<path d="M2.44929 17.1808H4.4091L4.11503 19.6515C4.58395 18.8223 5.25751 18.124 6.07295 17.6216C7.06246 17.0321 8.20004 16.7304 9.3551 16.7512C10.6831 16.7512 12.0491 17.0401 13.03 17.768C13.8918 18.4039 14.5125 19.3077 14.7925 20.3344C15.2279 19.3055 15.9612 18.427 16.9003 17.8092C18.0253 17.0326 19.2016 16.7437 20.7212 16.7437C23.3659 16.7437 24.6883 17.8561 25.1778 18.342C26.2554 19.4545 26.5494 20.8109 26.5494 22.0228C26.5373 23.1236 26.4556 24.2226 26.3047 25.3133L24.8837 36.9447H22.9258L24.3449 25.4634C24.3942 25.077 24.5896 23.381 24.5896 22.7019C24.5896 21.3455 24.1495 20.3775 23.512 19.7003C22.5824 18.7304 21.3568 18.5859 20.4272 18.5859C19.2509 18.5859 18.0253 18.8279 16.9477 19.8447C15.5779 21.1579 15.1359 23.2347 14.8418 25.5122L13.4208 36.9447H11.4667L12.8858 25.561C12.9845 24.7862 13.1324 23.4786 13.1324 22.7469C13.1324 21.7789 13.0338 20.6158 12.1023 19.6965C11.5141 19.1149 10.5352 18.5822 9.0174 18.5822C7.44842 18.5822 6.27405 19.1637 5.4905 19.9873C4.26491 21.2461 3.62745 23.2797 3.33339 25.848L1.95981 36.9447H0L2.44929 17.1808Z" fill="#00DBAF"/>
<path d="M29.5319 27.3039C29.348 28.4507 29.4334 29.624 29.7814 30.733C30.1295 31.842 30.7309 32.8569 31.5391 33.6993C32.3227 34.4741 33.8916 35.6353 36.5857 35.6353C38.1528 35.6353 39.9646 35.2001 41.3287 34.2321C42.4294 33.4124 43.3214 32.3499 43.9335 31.1291L45.4513 32.099C44.6184 33.5511 43.2961 35.1007 41.8751 36.0218C40.8468 36.699 39.1317 37.4757 36.5363 37.4757C33.941 37.4757 31.6871 36.7966 29.8734 34.8493C28.1109 33.0089 27.3748 30.6845 27.3748 28.1162C27.3748 24.4355 28.7464 21.5295 30.7062 19.5916C32.2752 18.042 34.5765 16.7344 37.8587 16.7344C40.5034 16.7344 42.7079 17.6536 44.129 19.01C46.3828 21.1412 46.823 24.2422 46.5782 27.2926L29.5319 27.3039ZM44.6184 25.4635C44.5691 23.3811 43.6888 21.5408 42.6112 20.4264C41.6797 19.4565 40.1619 18.586 37.8587 18.586C36.7895 18.5696 35.7285 18.772 34.7422 19.1804C33.7559 19.5888 32.8656 20.1944 32.1272 20.9592C30.9415 22.2122 30.1429 23.7745 29.8259 25.4616L44.6184 25.4635Z" fill="#00DBAF"/>
<path d="M50.7994 17.1805L49.3291 29.097C49.0369 31.3726 49.2817 33.3106 50.5547 34.4737C51.4369 35.256 52.7592 35.6312 53.9829 35.6312C55.7473 35.6312 57.1683 35.0027 58.0486 34.0816C58.6861 33.4044 59.4696 32.048 59.813 29.0933L61.2834 17.1768H63.2413L61.5755 29.6279C61.2834 31.7103 60.9893 33.7927 59.5683 35.3911C57.8608 37.2802 55.4533 37.4754 53.8767 37.4754C52.2603 37.4754 50.3498 37.1846 48.8795 35.6819C46.8703 33.5995 47.172 30.7892 47.3617 29.1908L48.8301 17.1843L50.7994 17.1805Z" fill="#00DBAF"/>
<path d="M143.334 38.2165C143.119 38.1339 143.013 38.2277 142.256 39.1545C141.979 39.4941 141.643 39.8843 141.512 40.0193C141.381 40.1544 141.188 40.3683 141.087 40.4921C140.987 40.6159 140.731 40.8786 140.518 41.0755C140.164 41.4066 139.793 41.7197 139.406 42.0136C139.277 42.1167 139.088 42.2706 138.985 42.3587C138.87 42.4568 138.749 42.5482 138.623 42.6326C138.526 42.6946 138.363 42.8109 138.261 42.8897C137.691 43.338 136.333 44.0828 135.179 44.5781C131.634 46.1277 127.448 46.7843 123.265 46.4541C121.281 46.2927 119.326 45.8765 117.45 45.2159C114.984 44.3248 113.735 43.6532 112.544 42.5895C112.261 42.3324 111.996 42.0566 111.751 41.764C111.561 41.5202 111.356 41.16 111.371 41.1037C111.464 40.9823 111.6 40.9004 111.751 40.8748C111.903 40.8617 111.941 40.8204 111.925 40.6872C111.907 40.5687 111.843 40.4618 111.747 40.3887C111.651 40.3157 111.53 40.2821 111.409 40.2951C111.193 40.3237 110.985 40.3947 110.797 40.5039C110.609 40.6131 110.445 40.7584 110.315 40.9311C110.041 41.3299 109.891 41.7997 109.886 42.2818C109.918 42.6026 110.157 42.794 110.324 42.6308C110.427 42.4947 110.52 42.3525 110.605 42.2049L110.859 41.7866C110.886 41.7472 110.907 41.7734 110.967 41.9141C111.438 43.0191 112.701 44.2854 114.231 45.1859C115.509 45.9363 117.623 46.7712 119.431 47.2383C121.683 47.807 124.004 48.0596 126.327 47.9887C130.368 47.908 134.451 46.8274 137.56 45.0171C137.782 44.8876 138.211 44.6419 138.509 44.4787C138.967 44.2341 139.406 43.9576 139.824 43.6513C139.964 43.5463 140.163 43.4074 140.264 43.3437C140.641 43.09 141.001 42.8137 141.344 42.5163C141.466 42.4043 141.597 42.3027 141.736 42.2124C142.09 41.9506 142.418 41.6566 142.717 41.3344C143.132 40.9171 143.455 40.4196 143.666 39.873C143.775 39.5963 143.809 39.2962 143.764 39.0025C143.724 38.6104 143.55 38.299 143.334 38.2165Z" fill="#00DBAF"/>
<path d="M121.381 16.3345C121.41 16.3428 121.44 16.3485 121.47 16.3514C121.694 16.3514 121.918 16.3645 122.14 16.3795C122.404 16.3964 122.666 16.4151 122.927 16.447C123.259 16.4846 123.591 16.5258 123.921 16.5802C124.993 16.742 126.033 17.064 127.006 17.5351C127.842 17.9377 128.58 18.5141 129.169 19.2248C129.759 19.9355 130.186 20.7638 130.421 21.653C130.524 22.026 130.595 22.407 130.634 22.7918C130.664 23.1248 130.675 23.4593 130.666 23.7936C130.666 24.0262 130.657 24.2607 130.647 24.4933C130.647 24.604 130.628 24.7128 130.619 24.8235C130.614 24.8451 130.609 24.8664 130.602 24.8873C130.516 24.8873 130.435 24.906 130.351 24.9117L129.7 24.9529L129.016 25.0017L128.384 25.043L127.668 25.0936L127.344 25.1162L126.295 25.1874L125.656 25.2287L124.959 25.2775C124.916 25.2775 124.872 25.2775 124.819 25.2775C124.816 25.2356 124.816 25.1936 124.819 25.1518C124.852 24.8312 124.852 24.5081 124.819 24.1875C124.792 23.8911 124.732 23.5986 124.641 23.3152C124.519 22.9281 124.313 22.5722 124.037 22.2721C123.761 21.972 123.423 21.7351 123.045 21.578C122.664 21.4118 122.262 21.2994 121.85 21.244C121.53 21.1991 121.207 21.1821 120.884 21.1934C120.106 21.2106 119.343 21.4127 118.661 21.7825C117.936 22.184 117.366 22.8104 117.038 23.5647C116.844 24.0099 116.7 24.4748 116.608 24.9511C116.511 25.4201 116.441 25.8891 116.382 26.3675C116.329 26.7877 116.274 27.206 116.221 27.6263C116.173 28.0015 116.13 28.3767 116.084 28.7519C116.044 29.0746 116.001 29.3954 115.959 29.718C115.913 30.0932 115.87 30.4685 115.822 30.8437C115.782 31.1663 115.739 31.4871 115.699 31.8098C115.652 32.185 115.61 32.5602 115.562 32.9354C115.523 33.2581 115.479 33.5789 115.439 33.9016C115.399 34.2243 115.361 34.5544 115.32 34.879C115.278 35.2035 115.236 35.53 115.196 35.8564C115.156 36.1828 115.117 36.5074 115.079 36.8319C115.062 36.9633 115.046 37.0946 115.029 37.2259H109.256C109.269 37.1415 109.286 37.0571 109.298 36.9726C109.326 36.7438 109.353 36.5149 109.379 36.2879C109.406 36.0609 109.438 35.8189 109.467 35.5844C109.495 35.3499 109.522 35.1398 109.548 34.9184L109.634 34.2243L109.719 33.5395C109.747 33.3125 109.774 33.0836 109.802 32.8548L109.882 32.1888C109.913 31.9543 109.941 31.7198 109.969 31.4871C109.998 31.2545 110.024 31.0425 110.051 30.8193C110.085 30.5435 110.121 30.2565 110.155 29.9901C110.182 29.7612 110.208 29.5323 110.237 29.3053C110.271 29.0239 110.307 28.7425 110.341 28.4649C110.375 28.1872 110.406 27.9171 110.44 27.6432C110.474 27.3693 110.51 27.0804 110.546 26.8046C110.586 26.4819 110.618 26.1573 110.664 25.8365C110.718 25.4451 110.778 25.0542 110.844 24.664C110.94 24.0826 111.067 23.5065 111.224 22.9381C111.44 22.1091 111.759 21.3096 112.172 20.5574C112.759 19.5221 113.592 18.6433 114.599 17.9966C115.286 17.5547 116.033 17.2094 116.816 16.9704C117.466 16.7655 118.133 16.6161 118.809 16.5239C119.171 16.477 119.533 16.432 119.898 16.402C120.222 16.3757 120.548 16.3701 120.873 16.3532C120.906 16.3505 120.939 16.3448 120.971 16.3363L121.381 16.3345Z" fill="#00DBAF"/>
<path d="M142.131 18.3868C141.466 17.656 140.753 16.9703 139.995 16.3345H139.976L138.648 27.0016C138.412 28.825 138.175 30.2283 137.086 31.2583C136.424 31.8661 135.379 32.3839 133.916 32.3839C132.734 32.3839 131.639 32.0087 131.03 31.3539C130.605 30.9318 130.178 30.1833 130.178 28.8738C130.178 28.5943 130.226 28.0784 130.416 26.435L130.516 25.6095L124.69 26.0054L124.597 26.7558C124.435 27.812 124.34 28.8771 124.312 29.945C124.312 33.033 125.969 34.7158 127.058 35.5112C128.712 36.6818 131.267 37.2428 133.823 37.2428C135.762 37.2428 138.08 36.9145 139.924 35.8864C143 34.1548 143.899 31.2545 144.373 27.5118L145.584 17.6421C144.416 17.8074 143.262 18.0563 142.131 18.3868Z" fill="white"/>
<path d="M163 11.5094L147.534 0L127.955 1.62651L143.988 12.2748L163 11.5094Z" fill="#00DBAF"/>
<path d="M153.725 17.2199L155.13 12.3516L143.668 12.8507L134.307 6.47217L132.912 11.3029C138.39 12.9726 142.374 17.552 142.374 17.552C149.111 15.6047 153.727 17.2199 153.727 17.2199H153.725Z" fill="#00DBAF"/>
<path d="M153.505 21.6362L151.48 28.6263L153.501 29.1891L155.517 22.199C155.561 22.0483 155.563 21.889 155.526 21.7368C155.488 21.5846 155.412 21.4446 155.303 21.3304C155.476 21.2715 155.63 21.1688 155.75 21.0326C155.87 20.8963 155.952 20.7314 155.988 20.5541C156.023 20.3768 156.011 20.1933 155.953 20.0221C155.894 19.8509 155.791 19.6978 155.654 19.5782V19.567L157.783 12.1904L156.821 12.2186L154.797 19.2912L154.812 19.3325C154.627 19.3579 154.452 19.4318 154.306 19.5465C154.159 19.6612 154.047 19.8125 153.979 19.9847C153.912 20.1569 153.892 20.3438 153.923 20.5259C153.953 20.7081 154.032 20.879 154.151 21.0209C153.998 21.0611 153.858 21.1398 153.745 21.2492C153.632 21.3587 153.549 21.4952 153.505 21.6456V21.6362Z" fill="#00DBAF"/>
</g>
<defs>
<clipPath id="clip0_711_1864">
<rect width="163" height="48" fill="white"/>
</clipPath>
</defs>
</svg>
